# xmcd
# 
# Track frame offsets:
#     150
#     16270
#     41120
#     66200
#     93025
#     109037
#     134925
#     159157
#     173800
#     186695
#     206595
#     238857
#     285550
# 
# Disc length: 4003
# 
# Revision: 1
# Processed by: cddbd v1.5.2PL0 Copyright (c) Steve Scherf et al.
# Submitted via: fre:ac v1.1beta1pre5
# 
DISCID=bb0fa10d
DTITLE=Santana - Santana III (Legacy Edition) [CD1]
DYEAR=1971
DGENRE=Rock
TTITLE0=Batuka
TTITLE1=No one to depend on
TTITLE2=Taboo
TTITLE3=Toussaint l'overture
TTITLE4=Everybody's everything
TTITLE5=Guajira
TTITLE6=Jungle strut
TTITLE7=Everything's coming our way
TTITLE8=Para los rumberos
TTITLE9=Gumbo (bonus track)
TTITLE10=Folsom street - one (bonus track)
TTITLE11=Banbeye (bonus track)
TTITLE12=No one to depend on (single version 9bonus track)
EXTD=
EXTT0=
EXTT1=
EXTT2=
EXTT3=
EXTT4=
EXTT5=
EXTT6=
EXTT7=
EXTT8=
EXTT9=
EXTT10=
EXTT11=
EXTT12=
PLAYORDER=
